<?xml version="1.0" encoding="UTF-8"?>
<svg version="1.1" xmlns="http://www.w3.org/2000/svg" width="1024" height="1024">
<path d="M0 0 C337.92 0 675.84 0 1024 0 C1024 337.92 1024 675.84 1024 1024 C686.08 1024 348.16 1024 0 1024 C0 686.08 0 348.16 0 0 Z " fill="#FDFDFD" transform="translate(0,0)"/>
<path d="M0 0 C2.00549097 -0.00407251 4.0109797 -0.00941818 6.01646423 -0.01593018 C11.42987586 -0.02953138 16.8431147 -0.02433427 22.25652909 -0.01479292 C27.94516835 -0.00715571 33.63379359 -0.01425344 39.32243347 -0.01895142 C48.87578972 -0.02439852 58.42907623 -0.01724622 67.98242188 -0.00292969 C78.9926974 0.01338072 90.0028061 0.00811572 101.01307756 -0.0084089 C110.49887599 -0.0220704 119.9846245 -0.0239203 129.4704296 -0.0160929 C135.12138993 -0.01144013 140.77227215 -0.01072475 146.42322731 -0.02070236 C151.74133454 -0.02943738 157.0592291 -0.02323201 162.37731361 -0.00601959 C164.31695708 -0.00208878 166.25661878 -0.00312951 168.19625473 -0.00980759 C189.06536477 -0.07497429 207.9644205 2.03184262 223.80664062 17.0625 C237.56818652 30.88720444 241.01255992 47.15479632 241.02905273 65.88818359 C241.03368791 67.25402458 241.0387135 68.61986428 241.0440979 69.98570251 C241.05716072 73.6824578 241.06365541 77.37919496 241.06810856 81.0759697 C241.07105055 83.3926187 241.07515753 85.70926287 241.07961273 88.02590942 C241.09327455 95.29438661 241.10294637 102.56285262 241.10681462 109.83134174 C241.11128554 118.18344778 241.12879388 126.53538937 241.15781522 134.88744545 C241.17953954 141.36760089 241.18952468 147.84771043 241.19085574 154.32790184 C241.19189656 158.18652059 241.19764755 162.04498449 241.21567535 165.90356445 C241.23234217 169.54146353 241.23422306 173.17909449 241.22553635 176.81701851 C241.22441765 178.76189782 241.23799224 180.70676899 241.25228882 182.65159607 C241.16871551 200.6128306 237.08516719 216.9757751 224.24291992 230.20849609 C210.53644677 242.78779217 195.19884801 246.70881342 177.01196098 246.5708828 C174.69432383 246.55586272 172.37725618 246.55767858 170.05958557 246.56452942 C163.47671131 246.58323619 156.89429189 246.5897651 150.31152344 246.54272461 C146.26772906 246.51503734 142.22518771 246.52152646 138.18141365 246.54973793 C136.65011879 246.55397646 135.11873162 246.54562852 133.58758354 246.5240078 C123.63827331 246.22358771 123.63827331 246.22358771 115.08691406 250.73901367 C113.98753987 251.93161828 112.91267442 253.14745098 111.86791992 254.38818359 C110.71423226 255.47504424 109.54916951 256.55009364 108.36791992 257.60693359 C107.20004185 258.69938999 106.03341186 259.79318189 104.86791992 260.88818359 C104.23345947 261.48203857 103.59899902 262.07589355 102.9453125 262.68774414 C99.52335503 265.89198255 96.10752241 269.10272265 92.69213867 272.31396484 C89.34948806 275.45640973 86.00158441 278.59314004 82.64819336 281.72412109 C81.52198054 282.7768181 80.39741532 283.83128296 79.27514648 284.88818359 C77.9166725 286.16589326 76.54891302 287.43371075 75.18041992 288.70068359 C74.45467773 289.37744141 73.72893555 290.05419922 72.98120117 290.75146484 C69.38306553 293.53819097 66.79267886 294.43601595 62.24291992 294.20068359 C58.815945 293.37567111 57.92855139 293.07686436 55.86791992 290.38818359 C55.4691925 288.39497375 55.4691925 288.39497375 55.43554688 286.1003418 C55.41575272 285.23967606 55.39595856 284.37901031 55.37556458 283.49226379 C55.36597969 282.10463081 55.36597969 282.10463081 55.35620117 280.68896484 C55.32927437 279.26368721 55.32927437 279.26368721 55.30180359 277.80961609 C55.24760099 274.77335047 55.21377288 271.73724292 55.18041992 268.70068359 C55.14725564 266.64271884 55.11276682 264.58477497 55.0769043 262.52685547 C54.98937357 257.4806075 54.92938996 252.43508594 54.86791992 247.38818359 C41.00791992 247.05818359 27.14791992 246.72818359 12.86791992 246.38818359 C12.86791992 250.41005859 12.86791992 254.43193359 12.86791992 258.57568359 C12.84729492 259.83533936 12.82666992 261.09499512 12.80541992 262.39282227 C12.74700367 268.29839728 12.74700367 268.29839728 15.58374023 273.17285156 C17.62962294 274.41428524 19.68926929 275.40430282 21.86791992 276.38818359 C24.03979492 278.31005859 24.03979492 278.31005859 25.61791992 280.13818359 C26.14901367 280.73115234 26.68010742 281.32412109 27.22729492 281.93505859 C32.74794488 290.18974472 33.45320896 297.23623364 33.24291992 307.07568359 C33.22712891 308.34992188 33.21133789 309.62416016 33.19506836 310.93701172 C32.43549348 353.6657734 32.43549348 353.6657734 19.86791992 366.38818359 C15.46707453 370.54189727 11.51519766 372.50795452 5.74291992 374.26318359 C1.51891494 375.89554687 0.17122739 376.8186041 -1.98754883 380.87255859 C-3.03323435 383.64975163 -3.90921682 386.47252139 -4.78833008 389.30615234 C-9.9399789 405.87652278 -24.74854381 416.73485562 -39.44458008 424.51318359 C-48.84903321 429.27051659 -58.85331987 431.36863512 -69.13208008 433.38818359 C-70.83557617 433.74009766 -70.83557617 433.74009766 -72.57348633 434.09912109 C-84.23339112 436.28832771 -96.2964417 436.61386314 -108.13208008 436.38818359 C-108.40149414 437.16677734 -108.6709082 437.94537109 -108.94848633 438.74755859 C-110.56034081 442.34364318 -112.76243072 443.46266967 -116.13208008 445.38818359 C-121.37386651 447.13544574 -126.99251697 446.69317913 -132.48095703 446.73828125 C-133.94433605 446.75474366 -135.40763795 446.78190406 -136.87060547 446.8203125 C-145.7734441 447.05239375 -153.6750872 446.96900546 -161.13208008 441.38818359 C-166.19705413 436.12703618 -167.50668462 430.85036545 -167.41333008 423.76708984 C-166.80124845 418.58989943 -164.45865572 414.71475924 -160.81958008 411.07568359 C-155.01189248 407.42899603 -150.56779008 406.00821301 -143.69458008 405.98974609 C-143.01081299 405.98687592 -142.3270459 405.98400574 -141.62255859 405.98104858 C-140.18724736 405.97902119 -138.75190764 405.98445764 -137.31665039 405.99707031 C-135.13730257 406.01314507 -132.9598087 405.99717839 -130.78051758 405.97802734 C-129.37686771 405.98001001 -127.97321898 405.98385418 -126.56958008 405.98974609 C-125.31016602 405.99312988 -124.05075195 405.99651367 -122.75317383 406 C-117.86125114 406.52441728 -113.5693677 407.61605534 -110.35473633 411.57958984 C-106.57417635 414.65586272 -102.24505419 413.65616499 -97.56958008 413.32568359 C-96.03333984 413.23432129 -96.03333984 413.23432129 -94.46606445 413.14111328 C-75.76983373 411.89508427 -51.42515655 409.73765033 -37.42895508 395.67724609 C-36.13208008 394.38818359 -36.13208008 394.38818359 -34.13208008 394.38818359 C-33.87555664 393.83388672 -33.6190332 393.27958984 -33.35473633 392.70849609 C-31.95657037 390.05510766 -30.31355526 387.70256433 -28.56958008 385.26318359 C-26.16476342 381.93726611 -26.16476342 381.93726611 -24.13208008 378.38818359 C-25.34895508 378.30568359 -26.56583008 378.22318359 -27.81958008 378.13818359 C-31.9454841 377.61970716 -34.18265994 376.42435139 -37.13208008 373.38818359 C-39.64875593 369.91277409 -39.29286401 366.56856583 -39.13208008 362.38818359 C-42.11452752 362.56357546 -42.11452752 362.56357546 -45.13208008 364.38818359 C-46.75728646 367.84538361 -47.50081622 371.48183443 -48.31958008 375.20068359 C-52.08268386 391.2586664 -52.08268386 391.2586664 -60.13208008 396.38818359 C-67.35176619 400.142009 -73.04713949 401.74323117 -81.13208008 401.38818359 C-80.86057129 400.60096924 -80.5890625 399.81375488 -80.30932617 399.00268555 C-73.81231848 379.99144572 -68.52738902 361.23646157 -65.13208008 341.38818359 C-64.91600098 340.16446045 -64.91600098 340.16446045 -64.69555664 338.91601562 C-62.89178631 328.23453746 -62.93805387 317.44202288 -62.88208008 306.63818359 C-62.87654114 305.93794067 -62.8710022 305.23769775 -62.86529541 304.51623535 C-62.73760103 282.42445916 -66.24191021 261.1936318 -81.77270508 244.56005859 C-83.604345 242.77028472 -85.44696241 240.99168044 -87.30004883 239.22412109 C-96.16813769 230.57995837 -102.95492402 220.0433353 -109.13208008 209.38818359 C-109.99833008 210.37818359 -110.86458008 211.36818359 -111.75708008 212.38818359 C-133.63703834 234.22393992 -171.39150812 237.36828594 -200.50708008 237.95068359 C-222.85967996 238.40141039 -245.57323681 239.53811502 -263.15942383 255.19287109 C-279.32019761 272.23771346 -278.79912545 296.37756336 -278.36907959 318.27444458 C-277.82170836 337.72288553 -274.11366943 356.91107926 -268.13208008 375.38818359 C-267.87056152 376.20432129 -267.60904297 377.02045898 -267.33959961 377.86132812 C-261.7021543 395.09126659 -253.83904066 411.44738601 -242.13208008 425.38818359 C-241.4024707 426.25701172 -240.67286133 427.12583984 -239.92114258 428.02099609 C-229.10958578 440.42583494 -217.05384702 449.4766512 -202.06958008 456.20068359 C-201.45775879 456.4786377 -200.8459375 456.7565918 -200.21557617 457.04296875 C-189.80393135 461.51287532 -179.59166085 462.9198685 -168.31958008 462.82568359 C-166.46320923 462.81867432 -166.46320923 462.81867432 -164.56933594 462.81152344 C-156.74411225 462.68487004 -150.23485741 461.8661633 -142.81176758 459.38037109 C-138.14210569 458.12124782 -133.63087543 457.92071813 -128.81958008 457.63818359 C-119.52555286 457.01897546 -112.28027837 454.44131217 -104.01489258 450.26318359 C-98.88370742 447.68617711 -93.93289862 446.03661883 -88.13208008 446.38818359 C-88.16688477 447.41556641 -88.20168945 448.44294922 -88.23754883 449.50146484 C-88.47826127 459.60039039 -88.64789369 470.53072972 -81.78833008 478.73266602 C-74.72575367 485.79211923 -64.39035801 488.80209454 -55.22164917 492.13781738 C-51.09409627 493.64198741 -46.98082236 495.18432536 -42.86645508 496.72412109 C-42.03983871 497.03285156 -41.21322235 497.34158203 -40.36155701 497.65966797 C9.38766435 516.29855557 9.38766435 516.29855557 28.86791992 531.38818359 C29.4099707 531.80680664 29.95202148 532.22542969 30.51049805 532.65673828 C57.30549932 553.59906546 69.15226042 583.58134397 73.54272461 616.52050781 C74.68400757 626.58470428 75.83080864 637.70030222 69.49682617 646.23583984 C42.94990251 676.22049463 -45.5990815 672.56770845 -82.62817383 674.84521484 C-84.81874499 674.97781393 -87.00938995 675.10474765 -89.20071411 675.22433472 C-91.50726803 675.35325969 -93.81320624 675.49320331 -96.11886597 675.63723755 C-109.04790542 676.41609032 -121.94773408 676.56664693 -134.89770508 676.59130859 C-137.16543091 676.59828134 -139.43315653 676.60532235 -141.70088196 676.61242676 C-148.92795034 676.63176105 -156.15498866 676.63660344 -163.38208008 676.63818359 C-165.22350145 676.63906731 -165.22350145 676.63906731 -167.10212326 676.63996887 C-202.2466535 676.65189439 -237.26908397 676.55140082 -272.31420898 673.62249756 C-275.2398582 673.37922154 -278.16626948 673.14762364 -281.09301758 672.91796875 C-303.87231782 671.11399141 -326.52489765 668.72796368 -349.13208008 665.38818359 C-350.87943958 665.14053128 -352.62683255 664.89311496 -354.37426758 664.64599609 C-363.02375955 663.38785618 -371.58072505 661.75707581 -380.13208008 659.95068359 C-381.52994751 659.66076538 -381.52994751 659.66076538 -382.95605469 659.36499023 C-393.14489585 657.14046746 -405.04665124 654.46934758 -411.47583008 645.51708984 C-412.44443166 643.8531707 -413.29785427 642.12337328 -414.13208008 640.38818359 C-414.46208008 639.72818359 -414.79208008 639.06818359 -415.13208008 638.38818359 C-417.05671899 604.48492891 -408.72219256 571.25106856 -386.13208008 545.38818359 C-364.02087201 520.96056325 -333.22321378 510.05441613 -303.15942383 498.57177734 C-301.86403687 498.07627884 -301.86403687 498.07627884 -300.54248047 497.57077026 C-296.25992895 495.93345585 -291.97481853 494.30374588 -287.68334961 492.68994141 C-268.65322765 486.30578228 -268.65322765 486.30578228 -255.11254883 472.54052734 C-252.08963352 465.37663216 -251.57603928 455.98417116 -253.13208008 448.38818359 C-254.71923456 445.54978034 -256.40111917 443.79300154 -258.78833008 441.59912109 C-263.40826861 437.24097908 -266.67339384 431.68318263 -270.13208008 426.38818359 C-270.49946289 425.83453125 -270.8668457 425.28087891 -271.24536133 424.71044922 C-281.76523962 408.70759549 -288.80795874 390.95144875 -293.97631836 372.57373047 C-294.23396973 371.66042969 -294.49162109 370.74712891 -294.75708008 369.80615234 C-294.9762207 368.99944092 -295.19536133 368.19272949 -295.42114258 367.36157227 C-296.04465889 365.19188014 -296.04465889 365.19188014 -298.13208008 363.38818359 C-300.20082042 362.74566009 -300.20082042 362.74566009 -302.13208008 362.38818359 C-302.02895508 363.58443359 -301.92583008 364.78068359 -301.81958008 366.01318359 C-301.81958008 369.31982511 -302.25781941 371.16021075 -304.31958008 373.76318359 C-311.46579578 380.43298492 -321.03901923 378.85146577 -330.20629883 378.70068359 C-336.75552155 378.45520281 -342.26889741 377.3849214 -348.13208008 374.38818359 C-349.00606445 373.95248047 -349.88004883 373.51677734 -350.78051758 373.06787109 C-360.27444989 367.85048487 -367.5120121 360.74326177 -371.13208008 350.38818359 C-374.11216227 338.65801503 -374.43057952 326.41864201 -375.13208008 314.38818359 C-375.18702637 313.47713867 -375.24197266 312.56609375 -375.29858398 311.62744141 C-375.96794164 299.1019341 -374.55201312 289.28556591 -366.19458008 279.38818359 C-363.08567419 276.14998484 -360.06982489 273.54456766 -356.13208008 271.38818359 C-355.47208008 271.38818359 -354.81208008 271.38818359 -354.13208008 271.38818359 C-354.18428711 270.11201172 -354.18428711 270.11201172 -354.23754883 268.81005859 C-355.18653999 226.33140671 -336.68667129 182.47833432 -307.52661133 151.89990234 C-305.5693904 149.84689573 -303.73995297 147.76787744 -301.94458008 145.57568359 C-298.68802329 141.75037604 -295.00504359 138.57621787 -291.13208008 135.38818359 C-290.1446582 134.56318359 -289.15723633 133.73818359 -288.13989258 132.88818359 C-261.93870688 111.39196285 -231.41588985 98.794437 -198.13208008 93.38818359 C-196.79137451 93.12448975 -196.79137451 93.12448975 -195.42358398 92.85546875 C-191.27382728 92.26633996 -187.2129511 92.20654254 -183.02661133 92.18505859 C-181.70858772 92.17650848 -181.70858772 92.17650848 -180.36393738 92.16778564 C-178.50223989 92.15836167 -176.64052592 92.15181204 -174.77880859 92.14794922 C-171.99845993 92.13836924 -169.2188922 92.10737492 -166.4387207 92.07568359 C-150.49239325 91.98029765 -135.18860115 93.93161599 -119.75708008 98.01318359 C-118.80575195 98.26406738 -117.85442383 98.51495117 -116.87426758 98.7734375 C-100.97333745 103.17721693 -86.56704169 110.56684023 -72.13208008 118.38818359 C-72.14096252 117.58211166 -72.14984497 116.77603973 -72.15899658 115.94554138 C-72.23973471 108.28313631 -72.30034133 100.62094259 -72.33932877 92.95822048 C-72.36004764 89.02038096 -72.38807062 85.08289805 -72.43383789 81.14526367 C-72.47786573 77.3326533 -72.50133458 73.52038202 -72.51158905 69.7075367 C-72.51887992 68.26572404 -72.533111 66.8239262 -72.55500031 65.38226128 C-72.82232176 47.01587239 -68.36011339 31.24181718 -55.47973633 17.67333984 C-39.5466174 2.16439713 -21.29479775 -0.0730654 0 0 Z " fill="#0B6399" transform="translate(637.132080078125,86.61181640625)"/>
<path d="M0 0 C29.53689137 25.67266648 51.39207565 61.5334145 54.3359375 101.29296875 C54.59997804 105.19352892 54.8116926 109.09509923 55 113 C54.04738281 113.03738281 53.09476563 113.07476562 52.11328125 113.11328125 C50.85902344 113.17902344 49.60476563 113.24476563 48.3125 113.3125 C46.45044922 113.39951172 46.45044922 113.39951172 44.55078125 113.48828125 C40.86921048 114.01884865 38.91023819 114.72242229 36 117 C34.80126145 118.76580116 34.80126145 118.76580116 34.1875 120.6875 C33.795625 121.780625 33.40375 122.87375 33 124 C31.02 124 29.04 124 27 124 C26.97812622 122.80177612 26.97812622 122.80177612 26.95581055 121.5793457 C26.31102064 89.81603805 25.04931677 55.55944442 2 31 C-3.60799536 25.87316401 -9.5955703 21.54726937 -15.97265625 17.4453125 C-17.97006136 16.02134354 -19.51789002 14.54035484 -21.1875 12.75 C-37.77422969 -4.48345998 -64.51022442 -15.60164454 -88 -18 C-88.85851562 -18.10828125 -89.71703125 -18.2165625 -90.6015625 -18.328125 C-98.71907358 -19.2380525 -106.84683528 -19.16901921 -115 -19 C-116.04800781 -18.98324219 -117.09601563 -18.96648437 -118.17578125 -18.94921875 C-133.99043485 -18.23130322 -149.66309566 -13.52264567 -164 -7 C-165.71703125 -6.24976563 -165.71703125 -6.24976563 -167.46875 -5.484375 C-195.87984649 7.69734995 -217.90184875 32.91109569 -229 62 C-234.57825269 77.76905394 -237.14004514 93.05803033 -238.125 109.75 C-238.21167281 111.14066044 -238.29890925 112.53128587 -238.38671875 113.921875 C-238.59666093 117.28094985 -238.80097562 120.64026364 -239 124 C-241.64 124 -244.28 124 -247 124 C-247.65104167 122.27473958 -248.30208333 120.54947917 -248.953125 118.82421875 C-250.3424547 116.40325991 -251.56392342 115.38263806 -254 114 C-257.26875041 113.42385742 -257.26875041 113.42385742 -260.75 113.3125 C-261.92046875 113.24675781 -263.0909375 113.18101562 -264.296875 113.11328125 C-265.18890625 113.07589844 -266.0809375 113.03851563 -267 113 C-269.0552859 77.75565289 -250.23878318 41.58287184 -227.5625 15.875 C-226.0504743 14.24180151 -224.52939925 12.61694062 -223 11 C-222.19304687 10.12859375 -221.38609375 9.2571875 -220.5546875 8.359375 C-163.03746049 -51.73325023 -62.32398234 -52.85073702 0 0 Z " fill="#FBFCFD" transform="translate(573,239)"/>
<path d="M0 0 C3.37526782 1.25687421 6.24450631 2.71446907 9.25 4.6875 C32.89784471 19.03760161 62.31798255 23.85166828 89.30859375 17.96875 C99.41168155 15.31735764 108.61981798 11.41441427 117.84765625 6.59106445 C122.81453706 4 122.81453706 4 125 4 C125.13535156 4.94359375 125.27070312 5.8871875 125.41015625 6.859375 C126.61598401 14.05101838 127.77708347 19.18967017 132 25.3125 C135.11203815 30.22728329 135.11203815 30.22728329 134.62109375 33.61328125 C133.32836734 36.35659175 131.84170141 38.59073023 130 41 C129.37480469 41.845625 128.74960937 42.69125 128.10546875 43.5625 C126.13850139 46.10753075 124.09308429 48.55806833 122 51 C121.40960937 51.71285156 120.81921875 52.42570313 120.2109375 53.16015625 C116.17852195 57.93829248 111.78946381 61.99501733 107 66 C106.14921875 66.73863281 105.2984375 67.47726562 104.421875 68.23828125 C96.02879168 75.42743868 87.13929761 81.79640786 78 88 C77.03586182 88.66418945 77.03586182 88.66418945 76.05224609 89.34179688 C74.29831487 90.54158751 72.52917472 91.7130794 70.75 92.875 C69.75484375 93.53242187 68.7596875 94.18984375 67.734375 94.8671875 C65 96 65 96 62.62963867 95.25024414 C43.74749976 86.27285733 27.05419073 72.32137199 12 58 C11.12472656 57.20078125 10.24945313 56.4015625 9.34765625 55.578125 C1.69665291 48.36331137 -6.65735706 38.53443259 -9 28 C-6.8125 25.125 -6.8125 25.125 -5.37890625 23.63671875 C0.07074581 17.16815158 0.15683166 7.99841453 0 0 Z " fill="#FCFDFD" transform="translate(403,552)"/>
<path d="M0 0 C5.94072787 -0.0746515 11.8811773 -0.12883772 17.82226562 -0.16479492 C19.83956667 -0.17979884 21.85683556 -0.20020855 23.87402344 -0.22631836 C26.78849263 -0.26307353 29.70252726 -0.27981068 32.6171875 -0.29296875 C33.95062698 -0.31619453 33.95062698 -0.31619453 35.31100464 -0.33988953 C47.7326296 -0.34316186 58.24215165 4.32631814 67.3125 12.75 C76.37478984 22.37868296 79.67437665 35.35732587 79.34765625 48.3125 C78.3482304 58.91315169 75.27375314 68.38341674 69 77 C68.53722656 77.64453125 68.07445312 78.2890625 67.59765625 78.953125 C60.65590001 87.79857616 50.90007097 92.21606955 40 94 C37.08990522 94.1546968 34.18329224 94.16391118 31.26953125 94.16796875 C30.02208382 94.17296135 30.02208382 94.17296135 28.74943542 94.17805481 C26.99873404 94.18310142 25.2480231 94.18546384 23.49731445 94.18530273 C20.81120229 94.18750106 18.12549335 94.20571261 15.43945312 94.22460938 C13.73698057 94.22754134 12.03450607 94.22952745 10.33203125 94.23046875 C9.52683548 94.23765427 8.72163971 94.24483978 7.89204407 94.25224304 C2.22883995 94.22883995 2.22883995 94.22883995 0 92 C-0.18827993 89.07751618 -0.2516874 86.25049178 -0.22705078 83.32763672 C-0.22734283 82.43001617 -0.22763489 81.53239563 -0.22793579 80.60757446 C-0.22653903 77.63151485 -0.21096156 74.65570355 -0.1953125 71.6796875 C-0.1915836 69.61988461 -0.18873605 67.56007995 -0.18673706 65.50027466 C-0.1790909 60.0717888 -0.15943399 54.6434095 -0.1373291 49.21496582 C-0.1168918 43.67848146 -0.10773988 38.14197993 -0.09765625 32.60546875 C-0.07618902 21.73693228 -0.04204126 10.86847499 0 0 Z " fill="#0B6098" transform="translate(494,816)"/>
<path d="M0 0 C8.10353627 6.71901249 13.80028395 15.70466705 15.45703125 26.18359375 C16.60921367 39.7868904 15.25852739 51.26820116 6.45703125 62.18359375 C0.28357335 69.09029761 -6.77528092 75.04730092 -14.296875 80.44140625 C-20.86464024 85.34579491 -24.46130928 92.30454831 -25.85546875 100.24609375 C-25.97535156 101.16519531 -26.09523438 102.08429688 -26.21875 103.03125 C-26.54296875 105.18359375 -26.54296875 105.18359375 -27.54296875 106.18359375 C-29.60352185 106.28352907 -31.66749465 106.31440281 -33.73046875 106.31640625 C-34.98601563 106.31769531 -36.2415625 106.31898438 -37.53515625 106.3203125 C-38.19225586 106.31821777 -38.84935547 106.31612305 -39.52636719 106.31396484 C-41.5345821 106.30861609 -43.54257334 106.31391066 -45.55078125 106.3203125 C-46.80632813 106.31902344 -48.061875 106.31773437 -49.35546875 106.31640625 C-50.51691406 106.31527832 -51.67835938 106.31415039 -52.875 106.31298828 C-55.54296875 106.18359375 -55.54296875 106.18359375 -56.54296875 105.18359375 C-57.26089373 90.34647755 -53.08956931 77.19786352 -43.29296875 65.87109375 C-39.21034732 61.62126599 -34.74008456 57.94509749 -30.1328125 54.28125 C-21.89170264 47.68040817 -21.89170264 47.68040817 -18.26171875 38.15625 C-17.83898117 31.97371282 -19.50062621 27.84864702 -23.54296875 23.18359375 C-30.10266215 17.96261329 -36.35213372 17.38556923 -44.54296875 18.18359375 C-50.3084223 19.81315359 -54.79177986 22.43944309 -58.54296875 27.18359375 C-60.32826641 30.75418907 -61.53400504 34.15142984 -62.60546875 37.99609375 C-63.54296875 41.18359375 -63.54296875 41.18359375 -65.54296875 43.18359375 C-70.17152686 43.64591532 -74.83151672 43.50757264 -79.48046875 43.49609375 C-81.43243164 43.52026367 -81.43243164 43.52026367 -83.42382812 43.54492188 C-85.29071289 43.54588867 -85.29071289 43.54588867 -87.1953125 43.546875 C-88.33991943 43.54985596 -89.48452637 43.55283691 -90.66381836 43.5559082 C-93.54296875 43.18359375 -93.54296875 43.18359375 -95.42626953 41.84643555 C-98.24305051 37.6520553 -96.26700895 30.88985508 -95.54296875 26.18359375 C-92.66937811 14.61516958 -86.30393531 5.06261321 -76.54296875 -1.81640625 C-53.21268014 -14.43266544 -22.24013027 -15.88580734 0 0 Z " fill="#FBFCFD" transform="translate(760.54296875,139.81640625)"/>
<path d="M0 0 C0.85796677 -0.00570007 1.71593353 -0.01140015 2.59989929 -0.01727295 C4.42669435 -0.02674716 6.25350668 -0.03326648 8.08032227 -0.03710938 C10.83707165 -0.04670224 13.59303886 -0.07765325 16.34960938 -0.109375 C29.75495295 -0.1906878 43.02823282 0.06594477 53.2890625 9.8359375 C59.20731237 16.28957917 61.12684117 22.47929636 61.01171875 31.078125 C61.00342041 31.87460449 60.99512207 32.67108398 60.98657227 33.49169922 C60.72157239 42.69785144 57.76796578 48.74972999 51.4921875 55.48046875 C43.07661755 63.03905602 32.32822786 63.50309636 21.57421875 63.328125 C20.51332031 63.31910156 19.45242188 63.31007813 18.359375 63.30078125 C15.76408237 63.27740024 13.1692741 63.24463056 10.57421875 63.203125 C10.58469238 64.07114746 10.59516602 64.93916992 10.60595703 65.83349609 C10.64001591 69.05012028 10.66510642 72.26665267 10.68408203 75.48339844 C10.69414752 76.87633281 10.70780109 78.26924602 10.72509766 79.66210938 C10.74932095 81.6626686 10.75962689 83.66338115 10.76953125 85.6640625 C10.78000488 86.86853027 10.79047852 88.07299805 10.80126953 89.31396484 C10.57421875 92.203125 10.57421875 92.203125 8.57421875 94.203125 C5.86499074 94.40164602 3.28118696 94.48151977 0.57421875 94.453125 C-0.163125 94.46085938 -0.90046875 94.46859375 -1.66015625 94.4765625 C-7.17246165 94.4564446 -7.17246165 94.4564446 -9.42578125 92.203125 C-9.61927846 89.31638256 -9.68796876 86.52592396 -9.66870117 83.63842773 C-9.67059952 82.75216705 -9.67249786 81.86590637 -9.67445374 80.95278931 C-9.6781681 78.01401005 -9.66744871 75.07547616 -9.65625 72.13671875 C-9.65505856 70.10173064 -9.65460496 68.06674198 -9.65486145 66.03175354 C-9.65329549 61.76372849 -9.64499663 57.49578719 -9.6315918 53.2277832 C-9.61459104 47.74396988 -9.61077769 42.2602486 -9.61153698 36.77641201 C-9.61126569 32.57382826 -9.60579129 28.37126483 -9.59853554 24.16868782 C-9.59534297 22.14597795 -9.5933801 20.12326577 -9.59264183 18.10055351 C-9.59048508 15.27980462 -9.58175565 12.45915539 -9.57104492 9.63842773 C-9.57149811 8.79424789 -9.57195129 7.95006805 -9.57241821 7.08030701 C-9.5271552 -1.02962824 -7.35364324 0.03755605 0 0 Z " fill="#0A6098" transform="translate(419.42578125,815.796875)"/>
<path d="M0 0 C1.56125851 0.00399299 3.12251789 0.01875614 4.68359375 0.04296875 C5.47701172 0.04361328 6.27042969 0.04425781 7.08789062 0.04492188 C12.98083853 0.09021353 12.98083853 0.09021353 14.12109375 1.23046875 C14.20964536 3.89672905 14.23634048 6.53693989 14.21875 9.203125 C14.21733505 10.00076767 14.2159201 10.79841034 14.21446228 11.620224 C14.20884691 14.1778431 14.19629187 16.73537593 14.18359375 19.29296875 C14.17858073 21.0227852 14.17401748 22.75260301 14.16992188 24.48242188 C14.15972166 28.73183114 14.14014943 32.98105291 14.12109375 37.23046875 C25.34109375 37.23046875 36.56109375 37.23046875 48.12109375 37.23046875 C48.10949219 34.64332031 48.09789062 32.05617188 48.0859375 29.390625 C48.07814713 26.89526492 48.07207026 24.39990618 48.06616211 21.90454102 C48.06112171 20.16527707 48.05428945 18.42601739 48.0456543 16.68676758 C48.03357583 14.19220938 48.02786267 11.69770702 48.0234375 9.203125 C48.01827621 8.42083023 48.01311493 7.63853546 48.00779724 6.83253479 C48.00760149 4.96479761 48.05909681 3.09717671 48.12109375 1.23046875 C49.64318965 -0.29162715 51.00319457 0.10087354 53.12109375 0.09765625 C53.92546875 0.09636719 54.72984375 0.09507812 55.55859375 0.09375 C56.40421875 0.09761719 57.24984375 0.10148438 58.12109375 0.10546875 C59.38953125 0.09966797 59.38953125 0.09966797 60.68359375 0.09375 C61.48796875 0.09503906 62.29234375 0.09632813 63.12109375 0.09765625 C63.86359375 0.09878418 64.60609375 0.09991211 65.37109375 0.10107422 C67.12109375 0.23046875 67.12109375 0.23046875 68.12109375 1.23046875 C68.23227821 4.05002879 68.27849174 6.84532168 68.28222656 9.66577148 C68.28967392 10.99253403 68.28967392 10.99253403 68.29727173 12.34609985 C68.31193172 15.28542851 68.31870131 18.22470322 68.32421875 21.1640625 C68.32996654 23.19808454 68.33572431 25.23210655 68.3414917 27.26612854 C68.35201228 31.53590143 68.35784818 35.80565542 68.36132812 40.07543945 C68.36681856 45.55814751 68.3908539 51.04060792 68.41930008 56.52323818 C68.43788281 60.72586303 68.4431297 64.92842769 68.444664 69.13109016 C68.44770038 71.15298887 68.45576177 73.17488629 68.46884918 75.19674492 C68.48582063 78.01994797 68.48405153 80.84253875 68.47753906 83.66577148 C68.48675385 84.50792709 68.49596863 85.3500827 68.50546265 86.21775818 C68.48858643 88.54197693 68.48858643 88.54197693 68.12109375 92.23046875 C64.45346058 94.67555753 62.486776 94.52932599 58.12109375 94.54296875 C56.26484375 94.56810547 56.26484375 94.56810547 54.37109375 94.59375 C51.12109375 94.23046875 51.12109375 94.23046875 49.4362793 93.20458984 C47.37444649 90.10973555 47.75402839 86.87077893 47.828125 83.28125 C47.83236984 82.50863327 47.83661469 81.73601654 47.84098816 80.93998718 C47.85777192 78.47395883 47.89542228 76.00874979 47.93359375 73.54296875 C47.94864104 71.87045452 47.96232937 70.19792747 47.97460938 68.52539062 C48.0051221 64.42651428 48.06384007 60.32940779 48.12109375 56.23046875 C37.23109375 56.23046875 26.34109375 56.23046875 15.12109375 56.23046875 C15.15589844 58.72222656 15.19070312 61.21398437 15.2265625 63.78125 C15.24995707 66.19391738 15.26817417 68.60657214 15.28588867 71.01928711 C15.30097759 72.69642795 15.32145123 74.37352932 15.34741211 76.05053711 C15.38379186 78.46087379 15.40081861 80.87068894 15.4140625 83.28125 C15.42954636 84.03134842 15.44503021 84.78144684 15.46098328 85.55427551 C15.46264972 90.70600585 15.46264972 90.70600585 13.83544922 93.20458984 C10.82680613 95.00497695 7.45704814 94.61808932 4.05859375 94.54296875 C2.9593457 94.54780273 2.9593457 94.54780273 1.83789062 94.55273438 C-3.61168686 94.49768814 -3.61168686 94.49768814 -5.87890625 92.23046875 C-6.07761678 89.37946691 -6.15158648 86.6255845 -6.13769531 83.7734375 C-6.14119995 82.89853668 -6.14470459 82.02363586 -6.14831543 81.1222229 C-6.15714162 78.22072492 -6.15128047 75.31946936 -6.14453125 72.41796875 C-6.14587765 70.40779575 -6.14781796 68.39762306 -6.15032959 66.38745117 C-6.15328206 62.1707042 -6.14897927 57.95404184 -6.13964844 53.73730469 C-6.12825385 48.32304652 -6.13481267 42.90898661 -6.14679337 37.49473572 C-6.15400865 33.34271746 -6.15172556 29.19074646 -6.14653778 25.03872681 C-6.14520037 23.04196143 -6.14685219 21.04519182 -6.15149689 19.0484314 C-6.15655668 16.26133805 -6.14885963 13.47456909 -6.13769531 10.6875 C-6.14174377 9.85626617 -6.14579224 9.02503235 -6.14996338 8.16860962 C-6.09181399 0.36195068 -6.09181399 0.36195068 0 0 Z " fill="#0E6299" transform="translate(174.87890625,815.76953125)"/>
<path d="M0 0 C0.78955078 -0.01224609 1.57910156 -0.02449219 2.39257812 -0.03710938 C4.45057435 -0.04237279 6.50812009 0.06543715 8.5625 0.1875 C11.46747155 3.09247155 10.9169517 6.14149306 10.9765625 10.0390625 C10.99592865 10.81309418 11.0152948 11.58712585 11.0352478 12.38461304 C11.0950983 14.86046275 11.14145011 17.33635883 11.1875 19.8125 C11.22567482 21.48960377 11.26472625 23.16668784 11.3046875 24.84375 C11.40080409 28.95817353 11.48481439 33.07268886 11.5625 37.1875 C17.64154189 29.61009854 17.64154189 29.61009854 23.6652832 21.98876953 C24.55595885 20.85897371 25.45639619 19.73683672 26.36401367 18.62060547 C28.75437127 15.65124211 30.87590382 12.74594942 32.71484375 9.40234375 C36.84990935 2.29958212 36.84990935 2.29958212 40.5625 0.1875 C47.77633546 -1.35939274 55.28679098 -0.61910904 62.5625 0.1875 C62.5625 5.0336422 60.87156916 6.82977122 57.9375 10.375 C57.454021 10.97505859 56.97054199 11.57511719 56.47241211 12.19335938 C54.84794983 14.20169222 53.20756242 16.19601062 51.5625 18.1875 C50.95841309 18.9192041 50.35432617 19.6509082 49.73193359 20.40478516 C48.8030835 21.52892822 48.8030835 21.52892822 47.85546875 22.67578125 C47.23559082 23.42641846 46.61571289 24.17705566 45.97705078 24.95043945 C44.76712799 26.41188456 43.55341627 27.87020335 42.33544922 29.32495117 C39.15228603 33.14884549 36.23303034 36.98814025 33.5625 41.1875 C41.95679275 53.88579949 50.39072614 66.53841455 59.21923828 78.94042969 C59.76306152 79.70774414 60.30688477 80.47505859 60.8671875 81.265625 C61.34140137 81.92981445 61.81561523 82.59400391 62.30419922 83.27832031 C65.67158453 88.38754677 65.67158453 88.38754677 65.1875 91.9375 C64.98125 92.68 64.775 93.4225 64.5625 94.1875 C61.31297252 94.33296783 58.06428287 94.4216168 54.8125 94.5 C53.89210938 94.54189453 52.97171875 94.58378906 52.0234375 94.62695312 C51.13398437 94.64306641 50.24453125 94.65917969 49.328125 94.67578125 C48.51118164 94.70196533 47.69423828 94.72814941 46.85253906 94.75512695 C43.43862856 93.90892845 42.53265635 92.04990246 40.5625 89.1875 C40.01042877 88.39755898 40.01042877 88.39755898 39.44720459 87.59165955 C38.21107949 85.80919438 37.00157845 84.01087019 35.796875 82.20703125 C35.35861389 81.55296799 34.92035278 80.89890472 34.46881104 80.22502136 C33.54993964 78.85174938 32.6322946 77.4776561 31.71582031 76.1027832 C30.30773562 73.99286089 28.89232153 71.88798121 27.4765625 69.78320312 C26.5828823 68.44561374 25.68963749 67.10773333 24.796875 65.76953125 C24.37194763 65.13932571 23.94702026 64.50912018 23.50921631 63.8598175 C20.5625 59.41634729 20.5625 59.41634729 20.5625 57.1875 C18.87252677 58.83052953 17.21033606 60.50221312 15.5625 62.1875 C14.85996094 62.80753906 14.15742187 63.42757812 13.43359375 64.06640625 C10.4442485 69.05280887 10.92314153 74.23112345 10.875 79.9375 C10.83312683 82.22402908 10.78775257 84.51049769 10.73828125 86.796875 C10.72708252 87.80717773 10.71588379 88.81748047 10.7043457 89.85839844 C10.5625 92.1875 10.5625 92.1875 9.5625 93.1875 C8.23206375 93.2858721 6.89656656 93.31828592 5.5625 93.3203125 C4.758125 93.32160156 3.95375 93.32289063 3.125 93.32421875 C2.279375 93.32035156 1.43375 93.31648437 0.5625 93.3125 C-0.283125 93.31636719 -1.12875 93.32023438 -2 93.32421875 C-2.804375 93.32292969 -3.60875 93.32164062 -4.4375 93.3203125 C-5.18 93.31918457 -5.9225 93.31805664 -6.6875 93.31689453 C-8.4375 93.1875 -8.4375 93.1875 -9.4375 92.1875 C-9.53803508 89.3624667 -9.57365716 86.56184715 -9.56689453 83.73632812 C-9.56864685 82.85021347 -9.57039917 81.96409882 -9.57220459 81.0511322 C-9.5766244 78.10698518 -9.57368467 75.16289769 -9.5703125 72.21875 C-9.5709855 70.18233224 -9.5719555 68.14591456 -9.57321167 66.10949707 C-9.57468882 61.83552284 -9.57253355 57.56156947 -9.56787109 53.28759766 C-9.5621738 47.79591461 -9.56545271 42.30428043 -9.57144356 36.81259918 C-9.57504872 32.60572946 -9.57391079 28.39887141 -9.57131577 24.19200134 C-9.57064637 22.16649876 -9.57147535 20.14099514 -9.57379532 18.11549377 C-9.5763211 15.2898577 -9.5724823 12.46430193 -9.56689453 9.63867188 C-9.56891876 8.79292099 -9.57094299 7.9471701 -9.57302856 7.07579041 C-9.54312941 -1.04220366 -7.37231532 0.00598888 0 0 Z " fill="#0B5F97" transform="translate(750.4375,815.8125)"/>
<path d="M0 0 C1.57689857 -0.01429802 1.57689857 -0.01429802 3.18565369 -0.02888489 C4.32523026 -0.02797348 5.46480682 -0.02706207 6.63891602 -0.02612305 C7.80536148 -0.03040817 8.97180695 -0.0346933 10.17359924 -0.03910828 C12.64420929 -0.04485981 15.11483627 -0.04534581 17.58544922 -0.04101562 C21.37374669 -0.0378577 25.16126219 -0.06129866 28.94946289 -0.08666992 C31.34594628 -0.08894295 33.74243177 -0.08964639 36.13891602 -0.08862305 C37.84524452 -0.10243767 37.84524452 -0.10243767 39.58604431 -0.11653137 C41.16767113 -0.10718819 41.16767113 -0.10718819 42.78125 -0.09765625 C43.71009506 -0.09828568 44.63894012 -0.0989151 45.59593201 -0.0995636 C47.95532227 0.2746582 47.95532227 0.2746582 49.7559967 1.57893372 C51.74381041 4.38950033 51.34608064 7.52839423 51.26782227 10.8371582 C51.27104492 11.52229492 51.27426758 12.20743164 51.27758789 12.91333008 C51.22259812 18.00738235 51.22259812 18.00738235 48.95532227 20.2746582 C46.23046498 20.44983567 43.60872864 20.50614953 40.88500977 20.4699707 C40.08878204 20.46714081 39.29255432 20.46431091 38.47219849 20.46139526 C35.92475464 20.4501846 33.37766016 20.42507882 30.83032227 20.3996582 C29.10506692 20.38962953 27.37980607 20.38050348 25.65454102 20.37231445 C21.42122465 20.35194238 17.18866531 20.31279643 12.95532227 20.2746582 C12.95532227 26.2146582 12.95532227 32.1546582 12.95532227 38.2746582 C15.3259082 38.26305664 17.69649414 38.25145508 20.13891602 38.23950195 C22.42577989 38.23171124 24.7126423 38.22563456 26.99951172 38.21972656 C28.59326841 38.21468663 30.18702046 38.20785471 31.78076172 38.19921875 C34.06682479 38.18713822 36.35282694 38.18142665 38.63891602 38.17700195 C39.35558945 38.17184067 40.07226288 38.16667938 40.81065369 38.16136169 C42.52595899 38.16116557 44.24113493 38.21273813 45.95532227 38.2746582 C48.0054684 40.32480433 47.18590201 44.40350408 47.20532227 47.2121582 C47.22594727 47.95401367 47.24657227 48.69586914 47.26782227 49.46020508 C47.28344727 51.61450195 47.28344727 51.61450195 46.95532227 55.2746582 C43.22991565 57.75826262 41.32469253 57.5062449 36.88110352 57.4699707 C36.19727097 57.46714081 35.51343842 57.46431091 34.80888367 57.46139526 C32.62835062 57.45021504 30.44823082 57.42511512 28.26782227 57.3996582 C26.7880105 57.38962558 25.30819228 57.38050022 23.82836914 57.37231445 C20.20373353 57.35198559 16.57998956 57.31283492 12.95532227 57.2746582 C12.95532227 63.5446582 12.95532227 69.8146582 12.95532227 76.2746582 C25.49532227 76.2746582 38.03532227 76.2746582 50.95532227 76.2746582 C52.47247517 79.30896401 52.18045542 82.44871785 52.20532227 85.7746582 C52.22594727 86.46430664 52.24657227 87.15395508 52.26782227 87.86450195 C52.28344727 89.8684082 52.28344727 89.8684082 51.95532227 93.2746582 C48.62536491 95.49462977 47.57085158 95.5269229 43.68945312 95.53344727 C42.6150145 95.53975159 41.54057587 95.54605591 40.43357849 95.55255127 C39.27415237 95.54850281 38.11472626 95.54445435 36.92016602 95.5402832 C35.73056778 95.54219666 34.54096954 95.54411011 33.31532288 95.54608154 C30.79940581 95.54744328 28.28348171 95.54374767 25.76757812 95.53540039 C21.90486978 95.5246916 18.04262556 95.53530125 14.17993164 95.5480957 C11.7391754 95.54677429 9.29841945 95.54421228 6.85766602 95.5402832 C5.69621567 95.54433167 4.53476532 95.54838013 3.33811951 95.55255127 C2.26683304 95.54624695 1.19554657 95.53994263 0.09179688 95.53344727 C-0.85401749 95.53185608 -1.79983185 95.53026489 -2.77430725 95.52862549 C-5.04467773 95.2746582 -5.04467773 95.2746582 -7.04467773 93.2746582 C-7.24342639 90.39339979 -7.31734918 87.60823755 -7.3034668 84.72583008 C-7.30697144 83.84117569 -7.31047607 82.9565213 -7.31408691 82.0450592 C-7.32291339 79.11109649 -7.31705185 76.17737351 -7.31030273 73.2434082 C-7.31164912 71.21081496 -7.31358943 69.17822202 -7.31610107 67.14562988 C-7.31905358 62.88180481 -7.31475062 58.61806341 -7.30541992 54.35424805 C-7.29402534 48.87945647 -7.30058413 43.40486097 -7.31256485 37.9300766 C-7.31978003 33.73173537 -7.31749709 29.53344088 -7.31230927 25.33509827 C-7.31097182 23.3160042 -7.31262378 21.29690594 -7.31726837 19.27781677 C-7.32232798 16.45959168 -7.31463136 13.64168742 -7.3034668 10.82348633 C-7.30751526 9.98290176 -7.31156372 9.1423172 -7.31573486 8.27626038 C-7.26834605 1.84352496 -6.51384275 0.0323386 0 0 Z " fill="#0D6198" transform="translate(269.044677734375,814.725341796875)"/>
<path d="M0 0 C0.99261337 0.00222061 1.98522675 0.00444122 3.00791931 0.00672913 C4.12900589 0.00680466 5.25009247 0.00688019 6.40515137 0.00695801 C8.2348069 0.01469994 8.2348069 0.01469994 10.10142517 0.02259827 C11.96377052 0.02472069 11.96377052 0.02472069 13.86373901 0.02688599 C17.16982383 0.03154861 20.47584039 0.04053955 23.78190613 0.05158997 C27.15338042 0.06180625 30.52486175 0.06638407 33.89634705 0.07142639 C40.51550667 0.08248056 47.13463385 0.09923715 53.75376892 0.12025452 C55.27088882 3.15449432 54.93816149 6.29530246 54.94126892 9.62025452 C54.95351501 10.30990295 54.96576111 10.99955139 54.9783783 11.71009827 C54.98365587 13.51502945 54.8756135 15.31943294 54.75376892 17.12025452 C52.75376892 19.12025452 52.75376892 19.12025452 49.22203064 19.3473053 C47.70913561 19.34698814 46.19621804 19.33566085 44.68345642 19.31556702 C43.8872287 19.31273712 43.09100098 19.30990723 42.27064514 19.30699158 C39.72320129 19.29578091 37.17610681 19.27067514 34.62876892 19.24525452 C32.90351358 19.23522584 31.17825273 19.2260998 29.45298767 19.21791077 C25.2196713 19.1975387 20.98711197 19.15839274 16.75376892 19.12025452 C16.75376892 25.06025452 16.75376892 31.00025452 16.75376892 37.12025452 C19.12435486 37.10865295 21.4949408 37.09705139 23.93736267 37.08509827 C26.22422654 37.07730756 28.51108896 37.07123088 30.79795837 37.06532288 C32.39171507 37.06028294 33.98546711 37.05345102 35.57920837 37.04481506 C37.86527145 37.03273453 40.15127359 37.02702297 42.43736267 37.02259827 C43.1540361 37.01743698 43.87070953 37.0122757 44.60910034 37.00695801 C46.32440564 37.00676189 48.03958158 37.05833444 49.75376892 37.12025452 C51.79643321 39.16291881 50.93884836 43.25716886 50.94126892 46.05775452 C50.95351501 46.79960999 50.96576111 47.54146545 50.9783783 48.30580139 C50.9836537 50.24539081 50.87565794 52.18449161 50.75376892 54.12025452 C48.75376892 56.12025452 48.75376892 56.12025452 45.58921814 56.3473053 C44.24558929 56.34698841 42.90193482 56.33567633 41.55845642 56.31556702 C40.85101288 56.31273712 40.14356934 56.30990723 39.41468811 56.30699158 C37.15254382 56.29578589 34.89079377 56.27068131 32.62876892 56.24525452 C31.09622255 56.23522519 29.56366998 56.22609925 28.03111267 56.21791077 C24.27172358 56.19754571 20.51318814 56.15839969 16.75376892 56.12025452 C16.75376892 62.39025452 16.75376892 68.66025452 16.75376892 75.12025452 C19.4015033 75.09705139 22.04923767 75.07384827 24.77720642 75.04994202 C27.33546977 75.0343542 29.89372788 75.02220451 32.45201111 75.01039124 C34.23295959 75.0003202 36.01389149 74.98666267 37.79478455 74.96937561 C40.35146675 74.94517539 42.90793077 74.93378268 45.46470642 74.92494202 C46.66321732 74.90945816 46.66321732 74.90945816 47.88594055 74.8936615 C49.84334112 74.89326225 51.80019969 74.99784383 53.75376892 75.12025452 C56.61713263 77.98361823 56.05393079 80.07253797 56.06626892 84.05775452 C56.08302673 85.30427795 56.09978455 86.55080139 56.11705017 87.83509827 C55.75376892 91.12025452 55.75376892 91.12025452 54.56018066 92.80230713 C52.11104706 94.58918061 50.50551718 94.49457546 47.48789978 94.49256897 C45.87624184 94.50191216 45.87624184 94.50191216 44.23202515 94.51144409 C43.07259903 94.50223434 41.91317291 94.4930246 40.71861267 94.48353577 C38.93421532 94.48428352 38.93421532 94.48428352 37.11376953 94.48504639 C34.59783763 94.4827046 32.08190344 94.47297004 29.56602478 94.45643616 C25.70326422 94.43282783 21.84119272 94.43587666 17.9783783 94.44252014 C15.53761895 94.43694418 13.09686252 94.42983482 10.65611267 94.42103577 C9.49466232 94.42194717 8.33321198 94.42285858 7.13656616 94.42379761 C6.06527969 94.41426559 4.99399323 94.40473358 3.89024353 94.39491272 C2.94442917 94.39030533 1.99861481 94.38569794 1.0241394 94.38095093 C-1.24623108 94.12025452 -1.24623108 94.12025452 -3.24623108 92.12025452 C-3.43972829 89.23351208 -3.50841859 86.44305348 -3.489151 83.55555725 C-3.49104935 82.66929657 -3.49294769 81.78303589 -3.49490356 80.86991882 C-3.49861793 77.93113956 -3.48789853 74.99260568 -3.47669983 72.05384827 C-3.47550839 70.01886016 -3.47505479 67.9838715 -3.47531128 65.94888306 C-3.47374532 61.68085801 -3.46544646 57.4129167 -3.45204163 53.14491272 C-3.43504087 47.6610994 -3.43122752 42.17737811 -3.43198681 36.69354153 C-3.43171552 32.49095778 -3.42624112 28.28839435 -3.41898537 24.08581734 C-3.4157928 22.06310747 -3.41382993 20.04039528 -3.41309166 18.01768303 C-3.41093491 15.19693413 -3.40220548 12.37628491 -3.39149475 9.55555725 C-3.39194794 8.71137741 -3.39240112 7.86719757 -3.39286804 6.99743652 C-3.35481649 0.17960389 -3.35481649 0.17960389 0 0 Z " fill="#0B5F97" transform="translate(589.2462310791016,815.8797454833984)"/>
<path d="M0 0 C4.71253454 3.73984058 8.64818372 8.86309812 10.1953125 14.7421875 C10.4453125 17.9296875 10.4453125 17.9296875 10.1953125 20.7421875 C7.35565138 23.58184862 4.55761921 23.14751604 0.7578125 23.1796875 C0.07654297 23.21255859 -0.60472656 23.24542969 -1.30664062 23.27929688 C-3.30078125 23.30078125 -3.30078125 23.30078125 -6.8046875 22.7421875 C-8.625 20.38671875 -8.625 20.38671875 -9.8046875 17.7421875 C-13.54647166 13.52068742 -15.68128375 12.00628017 -21.20703125 11.5390625 C-27.99816981 11.40925654 -27.99816981 11.40925654 -33.8046875 14.7421875 C-35.37639746 17.88560743 -35.03644533 21.29990201 -34.8046875 24.7421875 C-34.4746875 25.7321875 -34.1446875 26.7221875 -33.8046875 27.7421875 C-31.54070507 28.89070938 -31.54070507 28.89070938 -28.8046875 29.7421875 C-27.90717773 30.05833008 -27.00966797 30.37447266 -26.08496094 30.70019531 C-25.12106445 31.02858398 -24.15716797 31.35697266 -23.1640625 31.6953125 C-22.09285156 32.06785156 -21.02164063 32.44039062 -19.91796875 32.82421875 C-17.69454824 33.59634736 -15.46800091 34.35953621 -13.23828125 35.11328125 C-2.96160419 38.71934877 6.53190042 43.24091515 11.5078125 53.4296875 C13.14110047 61.2991659 12.84112184 68.53017165 9.1953125 75.7421875 C8.6796875 76.7734375 8.1640625 77.8046875 7.6328125 78.8671875 C4.11267889 83.01913996 0.01645838 85.3028316 -4.8046875 87.7421875 C-5.48273437 88.08636719 -6.16078125 88.43054688 -6.859375 88.78515625 C-16.95436101 92.96848703 -30.22643494 91.8952337 -40.21875 88.0078125 C-47.44193207 84.47259952 -53.20447883 79.447327 -57.1171875 72.3671875 C-58.07680721 68.70318497 -57.9940174 65.52878558 -57.8046875 61.7421875 C-56.8046875 60.7421875 -56.8046875 60.7421875 -52.98828125 60.64453125 C-51.40622068 60.65120661 -49.82417591 60.66316875 -48.2421875 60.6796875 C-47.43587891 60.68419922 -46.62957031 60.68871094 -45.79882812 60.69335938 C-43.80074994 60.70518232 -41.80270967 60.72311836 -39.8046875 60.7421875 C-39.53873779 61.32564941 -39.27278809 61.90911133 -38.9987793 62.51025391 C-36.47181652 68.02170522 -36.47181652 68.02170522 -31.8046875 71.7421875 C-25.82990612 73.73378129 -19.09885098 73.53327836 -13.1796875 71.4921875 C-10.64379308 69.62363372 -9.66415002 68.75030632 -8.8046875 65.7421875 C-8.3046875 62.7421875 -8.3046875 62.7421875 -8.8046875 59.7421875 C-11.72888591 56.09761652 -14.57878895 54.83567506 -18.96875 53.41015625 C-20.77666016 52.80010742 -20.77666016 52.80010742 -22.62109375 52.17773438 C-25.13442705 51.35018917 -27.65104064 50.53341775 -30.16796875 49.71679688 C-39.89645932 46.42399746 -49.96242125 42.42672 -54.8046875 32.7421875 C-57.9873121 24.3082323 -57.62553348 17.20065092 -53.99609375 9.03125 C-49.86752927 1.09899169 -43.2697636 -3.2684659 -34.9296875 -6.0703125 C-22.84341622 -9.29454645 -10.45039664 -6.75411487 0 0 Z " fill="#0B6098" transform="translate(714.8046875,820.2578125)"/>
<path d="M0 0 C1.27423828 -0.00193359 1.27423828 -0.00193359 2.57421875 -0.00390625 C3.91419922 0.00189453 3.91419922 0.00189453 5.28125 0.0078125 C6.17457031 0.00394531 7.06789063 0.00007812 7.98828125 -0.00390625 C8.83777344 -0.00261719 9.68726563 -0.00132812 10.5625 0 C11.34689453 0.00112793 12.13128906 0.00225586 12.93945312 0.00341797 C14.78125 0.1328125 14.78125 0.1328125 15.78125 1.1328125 C15.87568335 3.43335085 15.89867128 5.73683423 15.89477539 8.03930664 C15.89492142 8.76121689 15.89506744 9.48312714 15.8952179 10.22691345 C15.89451869 12.62396197 15.88672595 15.02093373 15.87890625 17.41796875 C15.8770421 19.07563739 15.87561818 20.73330657 15.87461853 22.39097595 C15.87079312 26.76235464 15.86096265 31.13370031 15.84991455 35.50506592 C15.83970092 39.96235711 15.83512101 44.41965361 15.83007812 48.87695312 C15.8193404 57.62892143 15.80226371 66.38086286 15.78125 75.1328125 C16.89685303 75.12757568 18.01245605 75.12233887 19.16186523 75.11694336 C23.28604333 75.09889475 27.41021791 75.08738101 31.53442383 75.07788086 C33.32219021 75.07284032 35.10995245 75.06600796 36.89770508 75.05737305 C39.46176168 75.0452952 42.02576397 75.03958156 44.58984375 75.03515625 C45.3940123 75.02999496 46.19818085 75.02483368 47.02671814 75.01951599 C48.94526715 75.01932035 50.86370368 75.07079267 52.78125 75.1328125 C54.82391429 77.17547679 53.96632944 81.26972684 53.96875 84.0703125 C53.98099609 84.81216797 53.99324219 85.55402344 54.00585938 86.31835938 C54.01113478 88.25794879 53.90313902 90.1970496 53.78125 92.1328125 C51.18938164 94.72468086 50.14298372 94.38566566 46.53710938 94.39160156 C44.89530701 94.40105804 44.89530701 94.40105804 43.22033691 94.41070557 C42.03387573 94.4066571 40.84741455 94.40260864 39.625 94.3984375 C38.41179077 94.40035095 37.19858154 94.4022644 35.9486084 94.40423584 C33.37963657 94.40559884 30.81065788 94.40189442 28.24169922 94.39355469 C24.29769496 94.3828571 20.35414625 94.39344644 16.41015625 94.40625 C13.91926982 94.40492843 11.42838368 94.40236608 8.9375 94.3984375 C7.15780823 94.40451019 7.15780823 94.40451019 5.34216309 94.41070557 C4.24762817 94.40440125 3.15309326 94.39809692 2.02539062 94.39160156 C1.05879517 94.39001038 0.09219971 94.38841919 -0.90368652 94.38677979 C-3.21875 94.1328125 -3.21875 94.1328125 -5.21875 92.1328125 C-5.41224721 89.24607006 -5.48093751 86.45561146 -5.46166992 83.56811523 C-5.46356827 82.68185455 -5.46546661 81.79559387 -5.46742249 80.88247681 C-5.47113685 77.94369755 -5.46041746 75.00516366 -5.44921875 72.06640625 C-5.44802731 70.03141814 -5.44757371 67.99642948 -5.4478302 65.96144104 C-5.44626424 61.69341599 -5.43796538 57.42547469 -5.42456055 53.1574707 C-5.40755979 47.67365738 -5.40374644 42.1899361 -5.40450573 36.70609951 C-5.40423444 32.50351576 -5.39876004 28.30095233 -5.39150429 24.09837532 C-5.38831172 22.07566545 -5.38634885 20.05295327 -5.38561058 18.03024101 C-5.38345383 15.20949212 -5.3747244 12.38884289 -5.36401367 9.56811523 C-5.36446686 8.72393539 -5.36492004 7.87975555 -5.36538696 7.00999451 C-5.32630566 0.00765903 -5.32630566 0.00765903 0 0 Z " fill="#0B6098" transform="translate(343.21875,815.8671875)"/>
<path d="M0 0 C23.10609481 0 23.10609481 0 30.1171875 5.73046875 C36.07827499 11.92653686 38.10383414 18.46627841 38.375 26.9375 C38.08517768 36.44125697 35.59875454 44.03016635 29 51 C20.12622704 58.33050809 11.47857332 57 0 57 C0 38.19 0 19.38 0 0 Z " fill="#FCFCFD" transform="translate(514,834)"/>
<path d="M0 0 C4.48741845 2.48615324 7.11474899 5.40674698 8.75 10.3125 C9.43812626 17.49850426 9.73008298 23.84914075 5.21875 29.7890625 C1.35055281 33.80128831 -2.361996 34.50907299 -7.75 34.75 C-12.68887897 34.60257078 -15.49728216 33.69909903 -19.25 30.3125 C-24.10964062 24.92749283 -24.72028616 20.55158293 -24.66015625 13.46484375 C-23.99814367 8.3768042 -21.7532951 4.97649671 -18.25 1.3125 C-12.44803579 -2.84977867 -6.3222207 -2.89082954 0 0 Z " fill="#FBFCFD" transform="translate(728.25,263.6875)"/>
<path d="M0 0 C2.990625 -0.061875 5.98125 -0.12375 9.0625 -0.1875 C9.99070557 -0.21481201 10.91891113 -0.24212402 11.87524414 -0.27026367 C17.37379723 -0.32490257 21.15469126 0.34631931 26 3 C28.8694861 6.23736893 29.9003512 8.20280958 30.4375 12.5 C29.84348952 17.25208386 28.58576214 20.56290306 25 23.8125 C21.70893358 25.76657069 19.07589234 26.1215025 15.33203125 26.09765625 C14.52741455 26.09515869 13.72279785 26.09266113 12.89379883 26.09008789 C11.36855591 26.07643188 11.36855591 26.07643188 9.8125 26.0625 C4.9553125 26.0315625 4.9553125 26.0315625 0 26 C0 17.42 0 8.84 0 0 Z " fill="#FBFCFD" transform="translate(430,834)"/>
<path d="M0 0 C0.33 0 0.66 0 1 0 C1.83239625 30.00611384 2.13515629 59.98282804 2 90 C3.05960938 89.97679687 4.11921875 89.95359375 5.2109375 89.9296875 C6.5989513 89.91093056 7.9869727 89.89273028 9.375 89.875 C10.07367188 89.85824219 10.77234375 89.84148437 11.4921875 89.82421875 C13.32897486 89.80655733 15.16601963 89.89696739 17 90 C17.66 90.66 18.32 91.32 19 92 C15.84044583 93.57977708 12.46536183 93.18447084 9 93.1875 C8.26265625 93.19974609 7.5253125 93.21199219 6.765625 93.22460938 C4.84229942 93.22987395 2.91945737 93.12203447 1 93 C-1.60315059 90.39684941 -1.2403442 88.5962528 -1.25994873 85.05075073 C-1.25432922 84.21794586 -1.24870972 83.38514099 -1.24291992 82.52709961 C-1.24481827 81.6505925 -1.24671661 80.77408539 -1.24867249 79.87101746 C-1.25238673 76.96470281 -1.24166765 74.0586363 -1.23046875 71.15234375 C-1.2292773 69.13977589 -1.22882371 67.12720748 -1.2290802 65.11463928 C-1.22751426 60.89369229 -1.21921557 56.67282999 -1.20581055 52.4519043 C-1.18880967 47.02862488 -1.18499645 41.60543853 -1.18575573 36.18213558 C-1.18548444 32.02587488 -1.18001001 27.86963471 -1.17275429 23.71338081 C-1.16956176 21.71299966 -1.16759886 19.71261616 -1.16686058 17.71223259 C-1.16470379 14.92261626 -1.15597429 12.13310071 -1.14526367 9.34350586 C-1.14571686 8.50867676 -1.14617004 7.67384766 -1.14663696 6.8137207 C-1.1144743 1.1144743 -1.1144743 1.1144743 0 0 Z " fill="#316B9E" transform="translate(170,817)"/>
<path d="M0 0 C0.33 0 0.66 0 1 0 C1 15.18 1 30.36 1 46 C5.95 46 10.9 46 16 46 C16.66 46.66 17.32 47.32 18 48 C14.81175432 49.59412284 11.37103338 49.10174735 7.875 49.0625 C7.12089844 49.05798828 6.36679688 49.05347656 5.58984375 49.04882812 C3.72652873 49.03703499 1.86325445 49.01909942 0 49 C-1.20895702 46.58208596 -1.08661844 45.15503275 -1.02172852 42.45849609 C-0.99158409 41.04725967 -0.99158409 41.04725967 -0.96083069 39.60751343 C-0.93379562 38.58976837 -0.90676056 37.57202332 -0.87890625 36.5234375 C-0.85529526 35.48305328 -0.83168427 34.44266907 -0.80735779 33.37075806 C-0.73061424 30.03870356 -0.64663584 26.70687525 -0.5625 23.375 C-0.50929003 21.11980284 -0.45654956 18.86459455 -0.40429688 16.609375 C-0.27498468 11.07277587 -0.13972768 5.53634553 0 0 Z " fill="#1A6A9E" transform="translate(171,861)"/>
<path d="M0 0 C1.0403248 4.16129919 0.92506546 4.9469284 -0.4375 8.75 C-1.95637383 13.4032771 -2.27055257 17.13005374 -2 22 C-3.32 22.33 -4.64 22.66 -6 23 C-6.66 25.31 -7.32 27.62 -8 30 C-3.1666528 30.08333357 1.23692563 29.95261487 6 29 C3.41431805 31.58568195 1.55402984 32.09533786 -2 33 C-4.97 33 -7.94 33 -11 33 C-7.37 22.11 -3.74 11.22 0 0 Z " fill="#0E538F" transform="translate(567,455)"/>
<path d="M0 0 C2.44904494 2.27411316 4.21135597 4.33684857 6 7.1875 C7.6971013 10.11943058 7.6971013 10.11943058 10.25 10.875 C11.11625 10.936875 11.11625 10.936875 12 11 C11.67 11.99 11.34 12.98 11 14 C11.87483915 16.16715557 11.87483915 16.16715557 13 18 C1.19012872 6.90587849 1.19012872 6.90587849 0 0 Z " fill="#0C518E" transform="translate(533,302)"/>
<path d="M0 0 C0.33 0 0.66 0 1 0 C1 3.63 1 7.26 1 11 C1.66 11 2.32 11 3 11 C3 12.32 3 13.64 3 15 C2.01 14.67 1.02 14.34 0 14 C-1.09859871 11.13985509 -1.13504811 8.3520545 -1.125 5.3125 C-1.12757813 4.52488281 -1.13015625 3.73726563 -1.1328125 2.92578125 C-1 1 -1 1 0 0 Z " fill="#0F5894" transform="translate(471,507)"/>
<path d="M0 0 C0 4.62 0 9.24 0 14 C-0.66 13.67 -1.32 13.34 -2 13 C-2.4140625 10.27734375 -2.4140625 10.27734375 -2.625 6.9375 C-2.69976563 5.83277344 -2.77453125 4.72804688 -2.8515625 3.58984375 C-2.90054688 2.73519531 -2.94953125 1.88054687 -3 1 C-1 0 -1 0 0 0 Z " fill="#1E6A9F" transform="translate(600,333)"/>
<path d="M0 0 C1.53166168 4.08443115 0.63081652 7.79455657 0 12 C-0.66 12 -1.32 12 -2 12 C-1.85904936 10.3745692 -1.71207913 8.74965949 -1.5625 7.125 C-1.48128906 6.22007812 -1.40007812 5.31515625 -1.31640625 4.3828125 C-1 2 -1 2 0 0 Z " fill="#0C528F" transform="translate(289,313)"/>
<path d="M0 0 C-0.33 0.66 -0.66 1.32 -1 2 C-4.3 2 -7.6 2 -11 2 C-8.74490247 -2.51019507 -4.15738698 -0.70597137 0 0 Z " fill="#095690" transform="translate(341,755)"/>
<path d="M0 0 C1.04005702 3.38018531 1.08004482 6.4780279 1 10 C0.34 10 -0.32 10 -1 10 C-1.66 7.03 -2.32 4.06 -3 1 C-2.01 0.67 -1.02 0.34 0 0 Z " fill="#0C5691" transform="translate(623,306)"/>
<path d="M0 0 C0.66 0.33 1.32 0.66 2 1 C-0.1875 3.5625 -0.1875 3.5625 -3 6 C-5.8125 5.8125 -5.8125 5.8125 -8 5 C-5.77077045 2.77077045 -3.90864722 2.11871047 -1 1 C-0.67 0.67 -0.34 0.34 0 0 Z " fill="#075590" transform="translate(753,334)"/>
<path d="M0 0 C0.66 0 1.32 0 2 0 C2 0.66 2 1.32 2 2 C3.98 1.34 5.96 0.68 8 0 C5.77267549 3.34098676 4.75137087 3.90203779 1 5 C0.01 4.67 -0.98 4.34 -2 4 C-1.34 2.68 -0.68 1.36 0 0 Z " fill="#0A518D" transform="translate(460,872)"/>
<path d="M0 0 C0.33 0 0.66 0 1 0 C1.29296875 6.0546875 1.29296875 6.0546875 1 8 C0.01 8.66 -0.98 9.32 -2 10 C-2.1953125 3.9453125 -2.1953125 3.9453125 -2 2 C-1.34 1.34 -0.68 0.68 0 0 Z " fill="#19699E" transform="translate(669,401)"/>
</svg>
